<svg width="149" height="123" viewBox="0 0 149 123" fill="none" xmlns="http://www.w3.org/2000/svg">
<ellipse opacity="0.1" cx="81.5" cy="61.5" rx="67.5" ry="61.5" fill="url(#paint0_linear)"/>
<path fill-rule="evenodd" clip-rule="evenodd" d="M76.4231 60.59C64.6435 60.59 55.0943 68.2239 55.0943 77.6408V77.6843C55.0943 87.1012 64.6435 94.7351 76.4231 94.7351H107.877C109.052 94.7351 110.204 94.6592 111.328 94.5131L117.422 99.2186C117.587 99.3465 117.809 99.418 118.039 99.418C118.53 99.418 118.928 99.0999 118.928 98.7076L118.928 92.2707C125.089 89.2811 129.206 83.867 129.206 77.6843V77.6408C129.206 68.2239 119.656 60.59 107.877 60.59H76.4231Z" fill="#1D4885"/>
<path d="M81.5964 19.7391H36.6853C19.8573 19.7391 6.21558 30.6447 6.21558 44.0975C6.21558 57.5502 19.8573 68.4558 36.6853 68.4558H81.5964C98.4244 68.4558 112.066 57.5502 112.066 44.0975C112.066 30.6447 98.4244 19.7391 81.5964 19.7391Z" fill="url(#paint1_linear)"/>
<path fill-rule="evenodd" clip-rule="evenodd" d="M20.895 61.3703V74.1221C20.895 74.6826 21.4634 75.137 22.1646 75.137C22.4934 75.137 22.8095 75.035 23.0461 74.8525L34.7678 65.811L20.895 61.3703Z" fill="url(#paint2_linear)"/>
<path d="M38.7484 47.1422C41.4655 47.1422 43.668 45.3814 43.668 43.2093C43.668 41.0373 41.4655 39.2765 38.7484 39.2765C36.0314 39.2765 33.8289 41.0373 33.8289 43.2093C33.8289 45.3814 36.0314 47.1422 38.7484 47.1422Z" fill="white"/>
<path d="M58.903 47.1422C61.62 47.1422 63.8226 45.3814 63.8226 43.2093C63.8226 41.0373 61.62 39.2765 58.903 39.2765C56.186 39.2765 53.9834 41.0373 53.9834 43.2093C53.9834 45.3814 56.186 47.1422 58.903 47.1422Z" fill="white"/>
<path d="M79.5334 47.1422C82.2504 47.1422 84.453 45.3814 84.453 43.2093C84.453 41.0373 82.2504 39.2765 79.5334 39.2765C76.8164 39.2765 74.6138 41.0373 74.6138 43.2093C74.6138 45.3814 76.8164 47.1422 79.5334 47.1422Z" fill="white"/>
<defs>
<linearGradient id="paint0_linear" x1="175.583" y1="-186.07" x2="90.5009" y2="140.401" gradientUnits="userSpaceOnUse">
<stop stop-color="#5498FF"/>
<stop offset="0.515625" stop-color="#428EFF"/>
<stop offset="1" stop-color="#297FFF"/>
</linearGradient>
<linearGradient id="paint1_linear" x1="132.909" y1="-53.9578" x2="115.04" y2="81.7774" gradientUnits="userSpaceOnUse">
<stop stop-color="#5498FF"/>
<stop offset="0.515625" stop-color="#428EFF"/>
<stop offset="1" stop-color="#297FFF"/>
</linearGradient>
<linearGradient id="paint2_linear" x1="37.4995" y1="40.5444" x2="27.249" y2="76.6567" gradientUnits="userSpaceOnUse">
<stop stop-color="#5498FF"/>
<stop offset="0.515625" stop-color="#428EFF"/>
<stop offset="1" stop-color="#297FFF"/>
</linearGradient>
</defs>
</svg>
